<?xml version="1.0" encoding="UTF-8"?>
<svg width="42px" height="42px" viewBox="0 0 42 42" version="1.1" xmlns="http://www.w3.org/2000/svg" xmlns:xlink="http://www.w3.org/1999/xlink">
    <!-- Generator: Sketch 46.2 (44496) - http://www.bohemiancoding.com/sketch -->
    <title>Group 2</title>
    <desc>Created with Sketch.</desc>
    <defs>
        <polygon id="path-1" points="10 10 13 10 13 25 10 24"></polygon>
        <path d="M10.7317073,8 L14.6341463,8 L14.6341463,22 L10.7317073,22 L10.7317073,8 Z M1.42108547e-14,0 L14.6300001,0 L14.6300001,8 L1.42108547e-14,8 L1.42108547e-14,0 Z M1.42108547e-14,8 L10.7317073,8 L10.7317073,22 L1.42108547e-14,22 L1.42108547e-14,8 Z" id="path-2"></path>
        <ellipse id="path-3" cx="3.90243902" cy="17" rx="3.90243902" ry="4"></ellipse>
    </defs>
    <g id="Welcome" stroke="none" stroke-width="1" fill="none" fill-rule="evenodd">
        <g id="Desktop-HD" transform="translate(-49.000000, -113.000000)">
            <g id="Group-2" transform="translate(50.000000, 114.000000)">
                <circle id="Oval-2" stroke="#131A37" cx="20" cy="20" r="20"></circle>
                <g id="Rectangle-2">
                    <use fill="#131A37" fill-rule="evenodd" xlink:href="#path-1"></use>
                    <path stroke="#131A37" stroke-width="1" d="M10.5,10.5 L10.5,23.6396204 L12.5,24.3062871 L12.5,10.5 L10.5,10.5 Z"></path>
                </g>
                <g id="Group-4" transform="translate(15.609756, 10.000000)">
                    <g id="Combined-Shape">
                        <use fill="#131A37" fill-rule="evenodd" xlink:href="#path-2"></use>
                        <path stroke="#131A37" stroke-width="1" d="M11.2317073,8.5 L11.2317073,21.5 L14.1341463,21.5 L14.1341463,8.5 L11.2317073,8.5 Z M0.5,0.5 L0.5,7.5 L14.1300001,7.5 L14.1300001,0.5 L0.5,0.5 Z M0.5,8.5 L0.5,21.5 L10.2317073,21.5 L10.2317073,8.5 L0.5,8.5 Z"></path>
                    </g>
                    <g id="Oval">
                        <use fill="#131A37" fill-rule="evenodd" xlink:href="#path-3"></use>
                        <ellipse stroke="#FFFFFF" stroke-width="3" cx="3.90243902" cy="17" rx="5.40243902" ry="5.5"></ellipse>
                    </g>
                </g>
            </g>
        </g>
    </g>
</svg>